# xmcd CD database file
#
# Track frame offsets:
#	150
#	9473
#	18515
#	31190
#	46900
#	58815
#	71210
#	82233
#	90928
#	101578
#	112365
#	122283
#	136000
#	149353
#	160360
#	171118
#	183423
#	193240
#	206810
#	219075
#	231080
#	246390
#	254680
#	268768
#	279543
#	291088
#	302877
#	318378
#	319130
#	319883
#	320635
#
# Disc length: 4391 seconds
#
# Revision: 0
# Processed by: cddbd v1.4PL0 Copyright (c) Steve Scherf et al.
# Submitted via: CDex 1.40Beta9
#
DISCID=da11251f
DTITLE=Var - Gold Disc 607
DYEAR=1900
DGENRE=Blues
TTITLE0=Dave Clark Five-Over and Over
TTITLE1=Beatles-From Me To You
TTITLE2=Brook Benton and Dinah washington-Baby
TTITLE3=5th Dimension-Stoned Soul Picnic
TTITLE4=Neil Sedaka-Happy Birthday Sweet Sixteen
TTITLE5=Donavan-Jennifer Juniper
TTITLE6=Chuck Berry-Roll Over Beethoven
TTITLE7=Ventures-Hawaii Five o
TTITLE8=Chubby checker-Lets Twist Again
TTITLE9=Monkees-Valleri
TTITLE10=Fats Domino-I'm Walkin
TTITLE11=Rolling Stones-Time Is On My Side
TTITLE12=Stevie Wonder-Uptight
TTITLE13=Thurston Harris-Little Bitty Pretty One
TTITLE14=Shangri Las-Remember Walking In The Sand
TTITLE15=Mark Dinning-Teen Angel
TTITLE16=Buddy Holly and the Crickets-Oh, Boy
TTITLE17=Jackson 5-I Want You Back
TTITLE18=Peter and Gordon-A World Without Love
TTITLE19=Sam Cooke-Chain Gang
TTITLE20=Kenny Rogers and the First Edition-Just Dropped In
TTITLE21=Elvis Presley-Teddy Bear
TTITLE22=Paul Revere and the Raiders-Good Thing
TTITLE23=Marvin Gaye and Tammi Terrell-If I Could Build My Whole World Around You
TTITLE24=Marty Robbins-A White Sport Coat
TTITLE25=Bobby Lewis-Tossin and Turnin
TTITLE26=Smith-Baby It's You
TTITLE27=blank
TTITLE28=blank
TTITLE29=blank
TTITLE30=Beatles-From Me To You mono
EXTD=ID3G: 0
EXTT0=
EXTT1=
EXTT2=
EXTT3=
EXTT4=
EXTT5=
EXTT6=
EXTT7=
EXTT8=
EXTT9=
EXTT10=
EXTT11=
EXTT12=
EXTT13=
EXTT14=
EXTT15=
EXTT16=
EXTT17=
EXTT18=
EXTT19=
EXTT20=
EXTT21=
EXTT22=
EXTT23=
EXTT24=
EXTT25=
EXTT26=
EXTT27=
EXTT28=
EXTT29=
EXTT30=
PLAYORDER=
